<svg width="20" height="20" viewBox="0 0 20 20" fill="none" xmlns="http://www.w3.org/2000/svg">
<path d="M9.99984 1.66699C8.90549 1.66699 7.82185 1.88254 6.81081 2.30133C5.79976 2.72012 4.8811 3.33395 4.10728 4.10777C2.54448 5.67057 1.6665 7.79019 1.6665 10.0003C1.6665 13.6837 4.05817 16.8087 7.3665 17.917C7.78317 17.9837 7.9165 17.7253 7.9165 17.5003V16.092C5.60817 16.592 5.1165 14.9753 5.1165 14.9753C4.73317 14.0087 4.1915 13.7503 4.1915 13.7503C3.43317 13.2337 4.24984 13.2503 4.24984 13.2503C5.08317 13.3087 5.52484 14.1087 5.52484 14.1087C6.24984 15.3753 7.47484 15.0003 7.94984 14.8003C8.02484 14.2587 8.2415 13.892 8.47484 13.6837C6.62484 13.4753 4.68317 12.7587 4.68317 9.58366C4.68317 8.65866 4.99984 7.91699 5.5415 7.32533C5.45817 7.11699 5.1665 6.25033 5.62484 5.12533C5.62484 5.12533 6.32484 4.90033 7.9165 5.97533C8.57484 5.79199 9.2915 5.70033 9.99984 5.70033C10.7082 5.70033 11.4248 5.79199 12.0832 5.97533C13.6748 4.90033 14.3748 5.12533 14.3748 5.12533C14.8332 6.25033 14.5415 7.11699 14.4582 7.32533C14.9998 7.91699 15.3165 8.65866 15.3165 9.58366C15.3165 12.767 13.3665 13.467 11.5082 13.6753C11.8082 13.9337 12.0832 14.442 12.0832 15.217V17.5003C12.0832 17.7253 12.2165 17.992 12.6415 17.917C15.9498 16.8003 18.3332 13.6837 18.3332 10.0003C18.3332 8.90598 18.1176 7.82234 17.6988 6.8113C17.28 5.80025 16.6662 4.88159 15.8924 4.10777C15.1186 3.33395 14.1999 2.72012 13.1889 2.30133C12.1778 1.88254 11.0942 1.66699 9.99984 1.66699V1.66699Z" fill="black"/>
</svg>
