<svg width="20" height="20" viewBox="0 0 20 20" fill="none" xmlns="http://www.w3.org/2000/svg">
<path d="M9.99984 1.66699C12.264 1.66699 12.5465 1.67533 13.4348 1.71699C14.3223 1.75866 14.9265 1.89783 15.4582 2.10449C16.0082 2.31616 16.4715 2.60283 16.9348 3.06533C17.3586 3.48191 17.6865 3.98582 17.8957 4.54199C18.1015 5.07283 18.2415 5.67783 18.2832 6.56533C18.3223 7.45366 18.3332 7.73616 18.3332 10.0003C18.3332 12.2645 18.3248 12.547 18.2832 13.4353C18.2415 14.3228 18.1015 14.927 17.8957 15.4587C17.6871 16.0151 17.3591 16.5192 16.9348 16.9353C16.5181 17.3589 16.0143 17.6868 15.4582 17.8962C14.9273 18.102 14.3223 18.242 13.4348 18.2837C12.5465 18.3228 12.264 18.3337 9.99984 18.3337C7.73567 18.3337 7.45317 18.3253 6.56484 18.2837C5.67734 18.242 5.07317 18.102 4.5415 17.8962C3.98511 17.6874 3.48111 17.3594 3.06484 16.9353C2.64101 16.5188 2.31311 16.0149 2.104 15.4587C1.89734 14.9278 1.75817 14.3228 1.7165 13.4353C1.67734 12.547 1.6665 12.2645 1.6665 10.0003C1.6665 7.73616 1.67484 7.45366 1.7165 6.56533C1.75817 5.67699 1.89734 5.07366 2.104 4.54199C2.31253 3.98547 2.64051 3.48143 3.06484 3.06533C3.48123 2.64135 3.98519 2.31343 4.5415 2.10449C5.07317 1.89783 5.6765 1.75866 6.56484 1.71699C7.45317 1.67783 7.73567 1.66699 9.99984 1.66699ZM9.99984 5.83366C8.89477 5.83366 7.83496 6.27265 7.05356 7.05405C6.27216 7.83545 5.83317 8.89526 5.83317 10.0003C5.83317 11.1054 6.27216 12.1652 7.05356 12.9466C7.83496 13.728 8.89477 14.167 9.99984 14.167C11.1049 14.167 12.1647 13.728 12.9461 12.9466C13.7275 12.1652 14.1665 11.1054 14.1665 10.0003C14.1665 8.89526 13.7275 7.83545 12.9461 7.05405C12.1647 6.27265 11.1049 5.83366 9.99984 5.83366V5.83366ZM15.4165 5.62533C15.4165 5.34906 15.3068 5.08411 15.1114 4.88876C14.9161 4.69341 14.6511 4.58366 14.3748 4.58366C14.0986 4.58366 13.8336 4.69341 13.6383 4.88876C13.4429 5.08411 13.3332 5.34906 13.3332 5.62533C13.3332 5.90159 13.4429 6.16654 13.6383 6.36189C13.8336 6.55725 14.0986 6.66699 14.3748 6.66699C14.6511 6.66699 14.9161 6.55725 15.1114 6.36189C15.3068 6.16654 15.4165 5.90159 15.4165 5.62533ZM9.99984 7.50033C10.6629 7.50033 11.2988 7.76372 11.7676 8.23256C12.2364 8.7014 12.4998 9.33728 12.4998 10.0003C12.4998 10.6634 12.2364 11.2993 11.7676 11.7681C11.2988 12.2369 10.6629 12.5003 9.99984 12.5003C9.3368 12.5003 8.70091 12.2369 8.23207 11.7681C7.76323 11.2993 7.49984 10.6634 7.49984 10.0003C7.49984 9.33728 7.76323 8.7014 8.23207 8.23256C8.70091 7.76372 9.3368 7.50033 9.99984 7.50033V7.50033Z" fill="black"/>
</svg>
