<svg width="16" height="16" viewBox="0 0 16 16" fill="none" xmlns="http://www.w3.org/2000/svg">
<path d="M8.00033 8.00016C8.36699 8.00016 8.68099 7.8695 8.94233 7.60816C9.20321 7.34727 9.33366 7.0335 9.33366 6.66683C9.33366 6.30016 9.20321 5.98616 8.94233 5.72483C8.68099 5.46394 8.36699 5.3335 8.00033 5.3335C7.63366 5.3335 7.31988 5.46394 7.05899 5.72483C6.79766 5.98616 6.66699 6.30016 6.66699 6.66683C6.66699 7.0335 6.79766 7.34727 7.05899 7.60816C7.31988 7.8695 7.63366 8.00016 8.00033 8.00016ZM8.00033 12.9002C9.35588 11.6557 10.3614 10.5251 11.017 9.50816C11.6725 8.49172 12.0003 7.58905 12.0003 6.80016C12.0003 5.58905 11.6141 4.59727 10.8417 3.82483C10.0697 3.05283 9.12255 2.66683 8.00033 2.66683C6.8781 2.66683 5.93077 3.05283 5.15833 3.82483C4.38633 4.59727 4.00033 5.58905 4.00033 6.80016C4.00033 7.58905 4.3281 8.49172 4.98366 9.50816C5.63921 10.5251 6.64477 11.6557 8.00033 12.9002ZM8.00033 14.4168C7.91144 14.4168 7.82255 14.4002 7.73366 14.3668C7.64477 14.3335 7.56699 14.2891 7.50033 14.2335C5.8781 12.8002 4.66699 11.4697 3.86699 10.2422C3.06699 9.01416 2.66699 7.86683 2.66699 6.80016C2.66699 5.1335 3.20321 3.80572 4.27566 2.81683C5.34766 1.82794 6.58921 1.3335 8.00033 1.3335C9.41144 1.3335 10.653 1.82794 11.725 2.81683C12.7974 3.80572 13.3337 5.1335 13.3337 6.80016C13.3337 7.86683 12.9337 9.01416 12.1337 10.2422C11.3337 11.4697 10.1225 12.8002 8.50033 14.2335C8.43366 14.2891 8.35588 14.3335 8.26699 14.3668C8.1781 14.4002 8.08921 14.4168 8.00033 14.4168Z" fill="white"/>
</svg>
