<svg width="16" height="14" viewBox="0 0 16 14" fill="none" xmlns="http://www.w3.org/2000/svg">
<path d="M1.49143 0H14.3091C14.7047 0 15.084 0.160406 15.3637 0.44593C15.6434 0.731454 15.8006 1.11871 15.8006 1.5225C15.8006 1.92629 15.6434 2.31355 15.3637 2.59907C15.084 2.88459 14.7047 3.045 14.3091 3.045H1.49143C1.09588 3.045 0.716527 2.88459 0.436829 2.59907C0.157132 2.31355 4.4448e-08 1.92629 4.4448e-08 1.5225C4.4448e-08 1.11871 0.157132 0.731454 0.436829 0.44593C0.716527 0.160406 1.09588 0 1.49143 0ZM1.49143 5.4775H14.3091C14.505 5.4775 14.6989 5.51688 14.8799 5.59339C15.0608 5.66991 15.2253 5.78205 15.3637 5.92343C15.5022 6.06481 15.6121 6.23265 15.687 6.41736C15.762 6.60208 15.8006 6.80006 15.8006 7C15.8006 7.19994 15.762 7.39792 15.687 7.58264C15.6121 7.76735 15.5022 7.93519 15.3637 8.07657C15.2253 8.21795 15.0608 8.33009 14.8799 8.40661C14.6989 8.48312 14.505 8.5225 14.3091 8.5225H1.49143C1.29557 8.5225 1.10163 8.48312 0.920684 8.40661C0.739735 8.33009 0.575321 8.21795 0.436829 8.07657C0.298337 7.93519 0.18848 7.76735 0.113528 7.58264C0.0385769 7.39792 1.30185e-08 7.19994 1.30185e-08 7C1.30185e-08 6.80006 0.0385769 6.60208 0.113528 6.41736C0.18848 6.23265 0.298337 6.06481 0.436829 5.92343C0.575321 5.78205 0.739735 5.66991 0.920684 5.59339C1.10163 5.51688 1.29557 5.4775 1.49143 5.4775ZM1.49143 10.9556H14.3091C14.505 10.9556 14.6989 10.995 14.8799 11.0715C15.0608 11.148 15.2253 11.2601 15.3637 11.4015C15.5022 11.5429 15.6121 11.7107 15.687 11.8954C15.762 12.0802 15.8006 12.2781 15.8006 12.4781C15.8006 12.678 15.762 12.876 15.687 13.0607C15.6121 13.2454 15.5022 13.4133 15.3637 13.5547C15.2253 13.696 15.0608 13.8082 14.8799 13.8847C14.6989 13.9612 14.505 14.0006 14.3091 14.0006H1.49143C1.29557 14.0006 1.10163 13.9612 0.920684 13.8847C0.739735 13.8082 0.575321 13.696 0.436829 13.5547C0.298337 13.4133 0.18848 13.2454 0.113528 13.0607C0.0385769 12.876 0 12.678 0 12.4781C0 12.2781 0.0385769 12.0802 0.113528 11.8954C0.18848 11.7107 0.298337 11.5429 0.436829 11.4015C0.575321 11.2601 0.739735 11.148 0.920684 11.0715C1.10163 10.995 1.29557 10.9556 1.49143 10.9556Z" fill="white"/>
</svg>
