<svg width="14" height="14" viewBox="0 0 14 14" fill="none" xmlns="http://www.w3.org/2000/svg">
<path d="M6.68333 13.3667C6.50555 13.3667 6.33622 13.3333 6.17533 13.2667C6.014 13.2 5.86667 13.1056 5.73333 12.9833L0.383333 7.63333C0.261111 7.5 0.166667 7.35267 0.1 7.19133C0.0333333 7.03044 0 6.86111 0 6.68333C0 6.50555 0.0333333 6.33333 0.1 6.16667C0.166667 6 0.261111 5.85555 0.383333 5.73333L5.73333 0.383333C5.86667 0.25 6.014 0.152667 6.17533 0.0913333C6.33622 0.0304444 6.50555 0 6.68333 0C6.86111 0 7.03333 0.0304444 7.2 0.0913333C7.36667 0.152667 7.51111 0.25 7.63333 0.383333L12.9833 5.73333C13.1167 5.85555 13.214 6 13.2753 6.16667C13.3362 6.33333 13.3667 6.50555 13.3667 6.68333C13.3667 6.86111 13.3362 7.03044 13.2753 7.19133C13.214 7.35267 13.1167 7.5 12.9833 7.63333L7.63333 12.9833C7.51111 13.1056 7.36667 13.2 7.2 13.2667C7.03333 13.3333 6.86111 13.3667 6.68333 13.3667V13.3667ZM6.68333 12.0333L12.0333 6.68333L6.68333 1.33333L1.33333 6.68333L6.68333 12.0333ZM6.01667 7.35H7.35V3.35H6.01667V7.35ZM6.68333 9.35C6.87222 9.35 7.03067 9.286 7.15867 9.158C7.28622 9.03044 7.35 8.87222 7.35 8.68333C7.35 8.49444 7.28622 8.336 7.15867 8.208C7.03067 8.08044 6.87222 8.01667 6.68333 8.01667C6.49444 8.01667 6.33622 8.08044 6.20867 8.208C6.08067 8.336 6.01667 8.49444 6.01667 8.68333C6.01667 8.87222 6.08067 9.03044 6.20867 9.158C6.33622 9.286 6.49444 9.35 6.68333 9.35Z" fill="white"/>
</svg>
