<svg width="315" height="90" viewBox="0 0 315 90" fill="none" xmlns="http://www.w3.org/2000/svg">
<path d="M64.432 46.288C64.432 53.456 62.512 59.216 58.672 63.568C54.64 68.24 49.072 70.384 41.968 70L40.048 69.904V67.216L43.6 67.312L43.504 64.912C43.184 56.656 46.256 52.528 52.72 52.528C53.488 52.528 54.256 52.752 55.024 53.2C55.664 53.392 56.784 54.064 58.384 55.216C59.088 53.232 59.44 51.12 59.44 48.88C59.44 45.168 58.96 42.192 58 39.952C57.04 37.648 55.216 35.152 52.528 32.464C49.84 29.776 46.384 28.432 42.16 28.432C36.016 28.432 31.472 30.352 28.528 34.192L27.856 35.536C27.408 36.432 27.216 37.488 27.28 38.704L27.568 43.216C28.912 40.656 31.056 39.312 34 39.184C36.816 39.056 38.704 39.76 39.664 41.296C41.52 44.176 42.448 47.248 42.448 50.512C42.448 56.528 40.528 61.36 36.688 65.008C34.384 67.184 32.176 68.464 30.064 68.848L26.32 69.52L21.808 69.808C15.6 70.192 10.352 67.92 6.064 62.992C2.032 58.32 0.0160002 52.816 0.0160002 46.48C0.0160002 36.048 4.048 28.752 12.112 24.592C14.8 23.184 17.808 22.48 21.136 22.48V25.456C15.888 26.224 11.696 28.272 8.56 31.6C5.488 34.928 3.952 39.216 3.952 44.464C3.952 49.584 5.744 53.776 9.328 57.04C12.912 60.304 17.296 61.936 22.48 61.936C33.36 61.936 38.8 57.424 38.8 48.4C38.8 46.992 38.16 45.488 36.88 43.888C36.048 42.864 35.088 42.352 34 42.352C31.504 42.352 29.744 43.856 28.72 46.864H25.936C24.592 45.008 23.92 42.288 23.92 38.704C23.92 33.2 25.968 29.008 30.064 26.128C33.648 23.568 38.32 22.288 44.08 22.288C50.992 22.288 56.208 24.624 59.728 29.296C62.864 33.456 64.432 39.12 64.432 46.288ZM57.136 58.48C56.432 57.136 55.056 56.208 53.008 55.696C51.088 55.696 49.552 56.56 48.4 58.288C47.312 59.952 46.768 61.808 46.768 63.856L47.056 66.928C51.472 66.16 54.832 63.344 57.136 58.48ZM59.9095 70.096C59.9095 77.2 57.7015 82.128 53.2855 84.88C50.7895 86.416 48.6455 87.344 46.8535 87.664L41.0935 88.624L35.8135 88.912C30.0535 89.232 24.1975 87.92 18.2455 84.976C12.9335 82.352 10.2775 78.16 10.2775 72.4V71.248L10.7575 69.712L13.5415 69.808C13.5415 75.632 14.8215 79.056 17.3815 80.08L23.6215 81.904C24.7735 82.224 26.1175 82.416 27.6535 82.48L37.8295 82.768L41.6695 82.672C42.9495 82.672 44.1015 82.544 45.1255 82.288C46.7895 82.288 49.0615 81.584 51.9415 80.176C54.0535 79.152 55.7815 75.792 57.1255 70.096H59.9095ZM55.4935 12.304C55.4935 14.032 54.9495 15.472 53.8615 16.624C52.7095 17.712 51.2695 18.256 49.5415 18.256C45.3175 17.872 43.2055 15.856 43.2055 12.208C43.2055 10.608 43.6535 9.168 44.5495 7.888L38.6935 6.64L36.2935 6.352L33.8935 6.256C28.9015 6.064 23.6215 6.96 18.0535 8.944C13.1895 10.672 10.7575 13.872 10.7575 18.544L7.8775 18.64C7.8775 6.224 15.9415 0.0159969 32.0695 0.0159969C47.6855 0.0159969 55.4935 4.112 55.4935 12.304ZM52.1335 12.016C52.1335 9.776 51.1095 8.65599 49.0615 8.65599C47.0775 8.65599 46.0855 9.744 46.0855 11.92C46.0855 14.032 47.1095 15.088 49.1575 15.088C50.8855 15.088 51.8775 14.064 52.1335 12.016ZM174.342 48.016C174.918 55.44 172.102 61.136 165.894 65.104C160.71 68.432 154.214 70.096 146.406 70.096C141.414 70.096 137.254 69.712 133.926 68.944C130.406 68.112 126.534 66.544 122.31 64.24C117.83 61.808 115.59 56.848 115.59 49.36C115.59 42.448 118.342 37.904 123.846 35.728C121.734 34.768 120.678 33.04 120.678 30.544C120.678 27.856 122.118 25.68 124.998 24.016C127.43 22.544 130.086 21.808 132.966 21.808C135.014 21.808 136.55 21.968 137.574 22.288C138.342 22.544 139.718 23.312 141.702 24.592C143.75 25.808 144.998 28.016 145.446 31.216C146.214 24.944 149.894 21.808 156.486 21.808C164.358 21.808 168.294 26.448 168.294 35.728C170.086 36.496 171.494 37.872 172.518 39.856C172.902 40.56 173.19 41.296 173.382 42.064L174.054 44.464L174.342 48.016ZM164.07 35.632V34.096L163.878 31.792C163.558 27.632 161.254 25.552 156.966 25.552C151.59 25.552 148.902 28.912 148.902 35.632H164.07ZM141.414 35.44C141.414 28.976 139.046 25.744 134.31 25.744C131.366 25.744 129.67 26.736 129.222 28.72C129.03 30.832 128.87 31.984 128.742 32.176L128.454 33.424C128.454 33.808 127.718 34.544 126.246 35.632L141.414 35.44ZM169.83 46.96C169.83 41.904 167.622 39.408 163.206 39.472L127.686 39.76C125.574 39.76 123.686 40.528 122.022 42.064C120.678 43.792 120.006 45.776 120.006 48.016C120.006 53.008 122.15 56.336 126.438 58C129.574 59.216 132.806 60.208 136.134 60.976L141.318 61.648L145.542 61.84C152.134 62.16 157.478 61.392 161.574 59.536C167.078 57.104 169.83 52.912 169.83 46.96ZM195.249 43.504C195.249 50.608 194.161 56.464 191.985 61.072C189.041 67.216 184.401 70.128 178.065 69.808L176.145 69.712V66.736C178.449 66.736 180.785 65.744 183.153 63.76C185.265 62.352 186.673 59.824 187.377 56.176L187.953 47.92L188.049 43.024C188.113 39.056 187.921 35.984 187.473 33.808C186.833 30.928 185.489 28.528 183.441 26.608C181.457 24.624 179.025 23.408 176.145 22.96L176.337 20.272H177.297C183.569 20.272 188.241 22.64 191.313 27.376C193.937 31.408 195.249 36.784 195.249 43.504ZM251.079 69.808C251.079 73.008 250.887 75.312 250.503 76.72C249.927 78.896 248.775 80.912 247.047 82.768C244.935 85.008 241.479 86.032 236.679 85.84L234.279 85.744C233.639 85.744 232.615 85.52 231.207 85.072C228.007 84.112 225.767 82.224 224.487 79.408L223.911 77.488L223.719 74.992L223.815 72.4C223.815 71.632 224.199 70.544 224.967 69.136C220.295 69.136 216.135 68.72 212.487 67.888C211.591 67.696 210.823 67.472 210.183 67.216L203.559 63.76C200.615 62.224 199.143 57.968 199.143 50.992C199.143 43.632 202.087 38.448 207.975 35.44C206.439 34.288 205.671 32.56 205.671 30.256C206.247 24.432 211.623 21.52 221.799 21.52C232.743 21.52 238.215 27.152 238.215 38.416C222.855 38.416 214.247 38.704 212.391 39.28C210.919 39.728 209.351 41.296 207.687 43.984C206.535 46.416 206.055 48.624 206.247 50.608L206.535 54.064C207.495 57.456 209.639 60.176 212.967 62.224C215.655 63.888 219.815 64.72 225.447 64.72C231.335 64.72 236.743 63.568 241.671 61.264L242.823 64.624L240.039 65.776L236.679 66.928L232.551 68.08L228.903 68.944C228.199 70.352 227.847 71.792 227.847 73.264C227.847 75.76 228.807 77.712 230.727 79.12C232.391 80.336 234.535 80.944 237.159 80.944C244.071 80.944 247.527 77.296 247.527 70L251.079 69.808ZM234.279 34.576C233.575 28.176 229.479 24.976 221.991 24.976C218.919 24.976 216.903 26.192 215.943 28.624L214.983 31.984L214.215 33.04L212.103 34.768L234.279 34.576ZM314.36 48.784C314.36 54.608 312.888 59.536 309.944 63.568C306.68 68.112 302.232 70.384 296.6 70.384C290.648 70.384 286.616 67.472 284.504 61.648C282.2 67.344 277.912 70.192 271.64 70.192C265.816 70.192 261.432 67.792 258.488 62.992C255.736 58.448 254.36 52.752 254.36 45.904C254.36 30.16 261.016 22.288 274.328 22.288H276.248L278.84 22.48V25.264H276.248L273.848 25.456C263.48 26.288 258.296 32.24 258.296 43.312C258.296 48.112 259.352 52.176 261.464 55.504C263.96 59.472 267.448 61.456 271.928 61.456C274.808 61.456 276.984 60.88 278.456 59.728C279.992 58.512 281.112 56.496 281.816 53.68C282.2 52.144 282.392 50.384 282.392 48.4H287.288C287.288 52.88 287.864 56.048 289.016 57.904C290.744 60.72 293.88 62.128 298.424 62.128C301.624 62.128 304.44 60.624 306.872 57.616C309.176 54.8 310.328 51.76 310.328 48.496C310.328 40.752 307.192 36.88 300.92 36.88H284.312C284.312 31.632 285.112 27.984 286.712 25.936C288.568 23.44 292.024 22.192 297.08 22.192C299.896 22.192 302.392 22.736 304.568 23.824C307.384 25.232 308.792 27.184 308.792 29.68C308.792 31.216 307.896 32.592 306.104 33.808C311.608 36.624 314.36 41.616 314.36 48.784ZM303.704 33.808L302.36 33.232L301.304 32.464L300.056 31.12L299.192 28.72C298.296 27.312 297.624 26.48 297.176 26.224C296.728 25.968 295.736 25.84 294.2 25.84C292.472 25.84 291.064 26.512 289.976 27.856L288.44 31.12L288.152 33.808H303.704Z" fill="white"/>
</svg>
