<svg width="124" height="47" viewBox="0 0 124 47" fill="none" xmlns="http://www.w3.org/2000/svg">
<g clip-path="url(#clip0_37_64)">
<path d="M123.973 36.7516L123.644 36.3102L123.096 35.9794L122.438 35.8698L121.341 35.6486L120.683 35.539L120.354 35.4284L119.916 35.3178L119.258 35.0976L118.709 34.8774L118.161 34.436L117.613 34.3254L117.174 34.1052L117.065 33.9946L116.845 33.5542H116.187L115.42 33.333L115.091 33.2234C114.88 33.1282 114.659 33.0542 114.433 33.0022C113.994 32.8926 113.885 32.6714 113.885 32.6714L113.446 32.5618L112.678 32.3406L112.02 32.231L111.253 32.0098L110.705 31.9002L110.267 31.6799L109.609 31.4588L109.17 31.2385L108.622 31.128H107.964L107.525 31.0183L106.758 30.9077L105.881 30.7972L105.442 30.5769L104.565 30.4664H104.126L103.578 30.0259L103.029 29.9153L102.481 29.8048L101.823 29.474L101.056 29.2537L100.288 28.8123H99.8539L99.3059 28.5921L98.867 28.4815L98.0981 27.9314L97.7692 27.8218L97.4402 27.491L97.3302 27.1602L97.1112 26.8294L96.5632 26.4986L96.3433 26.2774C96.2679 26.1374 96.1536 26.0225 96.0143 25.9466C95.7953 25.837 95.2473 25.6158 95.2473 25.6158L94.9183 25.285L94.5866 24.9579L94.2576 24.8483L93.8187 24.5175L93.0517 24.1867L92.5028 23.9665L92.0647 23.6357L91.6258 23.3049L91.4068 22.9741L91.1869 22.5327L90.8579 22.4221L90.3099 22.2019L89.7619 22.0913L89.323 21.8711L88.885 21.6508L88.227 21.4297L87.898 21.32L87.5691 20.9892L87.1301 20.6584L86.3622 20.3276C86.3622 20.3276 85.1609 19.2246 85.0472 19.1196C84.9335 19.0146 84.7182 19.1196 84.7182 19.1196L84.2793 19.0091L84.0603 18.8437L83.7313 18.5649L83.8403 18.3447L84.0603 17.5725L83.8403 17.2417C83.8403 17.2417 83.7313 16.4704 83.6213 16.3599C83.5114 16.2493 83.6213 15.6982 83.6213 15.6982L82.9634 14.927L82.6344 14.8164L81.9765 14.2654L81.3185 14.0442L80.6605 13.824H80.1126L79.6736 13.4932L79.0157 13.1568H78.7967L78.4677 12.8883V12.7154H78.1378L77.8088 12.6058L77.2608 12.3846L76.8219 12.275L76.4929 12.1644H76.2739L76.0549 11.8336L75.8349 11.3932L75.506 11.172L75.1807 10.6201L74.9617 10.5095L74.6327 9.95845L74.4137 9.84787L74.0847 9.51707L73.6458 9.07662L73.3168 8.74582L72.9878 8.41501L72.6588 8.19386H72.3299L71.8919 8.08421L71.4529 7.97363L71.014 7.88071V7.64469L70.9049 7.31296V6.87344L70.795 6.54263L70.576 6.32148L70.466 5.99068L70.137 5.77045L69.9134 5.65801L69.2554 5.32721L68.8165 5.21756L68.4875 4.99641L68.1585 4.66561L67.9395 4.44538L67.7205 4.3348L67.6105 4.11458L67.5006 3.90457V3.56355L67.3915 3.23275L67.2816 2.90195L67.0626 2.57114L66.8426 2.24034L66.5136 2.12976L66.2697 2.05914L65.9657 1.79896L65.7466 1.57873H65.4177L65.0887 1.35851L64.8697 1.24793L64.5407 0.917128H64.3208L63.9918 0.806551L63.7728 0.586326H63.1148L62.7859 0.475748L62.5669 0.255523H62.1279L61.5818 0.147733L61.104 0.0380859H60.3758L59.9951 0.147733H59.2789L58.95 0.258311L58.073 0.589113L57.196 1.03049L56.5381 1.47094L55.3312 1.91325L54.2879 2.68544H53.9063L53.3583 3.01624L52.7003 3.34704L52.3714 3.56727L52.0424 4.1183L51.8225 4.66932L51.6034 5.00013L51.2745 5.33093L50.8355 5.55208L50.3975 6.10311L50.0685 6.43391L49.5205 6.87529L49.0816 6.98494L48.5336 7.31575L47.9847 7.5369L47.7657 8.08793L47.5504 8.30444L47.3305 8.52466L47.2214 8.74582L46.8924 8.96604L46.5487 9.18627L46.1245 9.40742L45.5765 9.29684H45.2402L45.1302 9.18627H44.4722L43.8143 9.51707L43.2663 9.73822L42.722 10.1833L42.0641 10.8449L41.5161 11.5065L41.1871 11.9479L40.9672 12.4989L40.7482 12.9403L40.3092 13.1568L39.9802 13.4876L39.7612 13.8184L39.326 14.0377L38.888 14.1483L38.669 14.4791L38.3206 14.5897H38.011L37.5702 14.8099L37.1294 14.9223L36.8004 15.032L36.2525 15.2532L35.8366 15.3628H35.2655L34.9698 15.584H34.0587L33.5366 15.6936H32.9618L32.4138 16.0244C32.4138 16.0244 31.9748 16.2446 31.8658 16.3552C31.7568 16.4658 31.4269 16.4658 31.4269 16.4658L30.6599 16.686L30.33 16.7966H30.111L29.6729 17.0168L29.3458 17.1255L29.0168 17.3458L28.5779 17.566H28.2489L27.7009 17.6766L27.481 18.0074L27.043 18.2276L26.714 18.5584L26.5412 18.8018L26.2751 18.9998L26.056 19.3306L25.8343 19.772L25.6143 20.2124L25.2853 20.4326L24.7374 21.0942L24.5184 21.3033V21.4269L24.1894 21.6481L23.9694 21.9789L23.8604 22.3097L23.7523 22.6349L23.6423 23.0753L23.4233 23.2965L23.3133 23.7369L23.2043 24.0677L22.6563 24.7293L22.1074 25.0601L21.6694 25.5015L21.2304 25.7218L20.4625 26.0526L19.6955 26.2728L19.1466 26.6036L18.3796 27.045L17.4657 27.3758H16.9537L15.8541 28.1507C15.8541 28.1507 15.4151 28.7027 15.0862 28.7027C14.7572 28.7027 14.2092 29.1431 14.2092 29.1431L13.8118 29.0335H13.3322L12.897 29.5845L12.02 29.9153L11.2142 30.1356H10.3751L9.60723 30.3567L7.85146 30.7972C7.85146 30.7972 5.98757 31.2385 5.76764 31.2385C5.5477 31.2385 3.73926 32.151 3.73926 32.151L1.66467 34.4193L0.0244141 36.0705" stroke="white" stroke-width="0.75" stroke-miterlimit="10"/>
<path d="M39.1034 14.3652L38.1164 15.248L37.5703 15.8027L36.9105 16.1308L36.1426 16.902L36.3625 17.454L36.8005 17.6742L37.7875 17.7848L38.4454 18.005H39.4323L40.2003 17.7848H43.8181L44.476 18.005H45.3539L45.6829 18.1156L46.4222 18.6118L46.6698 18.9974H46.0331L45.5711 19.4388L44.6941 19.8792L44.1452 20.0995V20.4303L44.6941 20.8716L45.1321 20.9822L45.681 21.2024L46.01 21.7535L46.667 22.4039L48.0929 23.296L48.9699 23.6268L49.5188 23.847L50.2858 24.1778L51.1627 24.6183L52.0406 24.7288L52.5886 25.0596L53.4647 25.3951L54.1226 25.5057L54.7806 25.8365L55.5485 26.1673L56.8644 26.6077L57.5223 26.8289L57.9604 26.9385H58.3993L60.1551 27.1597L61.142 27.0491L62.1289 27.1597H62.8968L63.4448 27.2693C63.5822 27.3356 63.7315 27.3732 63.8838 27.3799C64.1028 27.3799 64.7607 27.4905 64.8707 27.6001C64.9706 27.6876 65.0811 27.7619 65.1997 27.8213L65.5287 27.9309L66.0766 28.0415L66.9536 28.482L68.1549 28.8128L68.3749 28.9233L69.2518 29.4744L69.6908 29.6955C69.6908 29.6955 69.4708 29.6955 70.0197 29.9157C70.5686 30.136 70.4578 30.136 70.4578 30.136H71.2257L72.2126 29.9157H75.2824L76.0504 30.0263H76.3821L76.6843 30.136L77.2591 30.4668C77.2591 30.4668 77.588 30.3571 77.698 30.5774C77.7545 30.6978 77.8283 30.8093 77.917 30.9082L78.684 31.239H78.9612L79.5637 31.4592L80.6597 31.5698L81.0987 31.9006L82.3 32.1208H83.298L84.2738 32.0102L84.7045 32.1208H85.3633C85.3633 32.1208 85.8087 32.1208 86.0287 32.2314L86.4667 32.4516L86.9056 32.5622L87.4536 32.6718L88.0016 32.7824H88.6596L89.3175 32.893H89.7565L90.3044 33.1132L90.8524 33.2238L91.5104 33.444L91.8394 33.5546H92.6073L92.9363 33.444L94.1376 33.5546H94.6856L95.5634 33.6642H98.1712L99.1813 33.7748L99.7302 33.995H101.465L102.471 34.2162H102.91L103.129 34.4364L103.787 34.6566C104.116 34.7672 104.006 34.7672 104.006 34.7672L104.445 34.8778L104.774 34.9874L105.432 35.098L106.199 34.9874H106.748C106.872 34.9845 106.993 35.0234 107.092 35.098L107.406 35.3182L107.954 35.5394L108.502 35.649H109.051L109.708 35.7596H110.475L111.243 35.8702L111.791 35.9798L112.791 36.0904H113.12L113.339 36.2001H113.841C113.841 36.2001 113.564 36.4212 113.997 36.4212H115.278C115.278 36.4212 116.41 36.6414 116.519 36.6414C116.628 36.6414 116.848 36.8617 116.848 36.8617H117.823L118.302 37.1925H119.05L119.48 37.0828L119.68 37.1925H120.505L121.015 37.3031L121.454 37.4136H122.221L122.441 37.5233L122.879 37.4136L123.192 37.1925H123.645L123.976 36.752" stroke="white" stroke-width="0.75" stroke-miterlimit="10"/>
<path d="M35.9061 33.0078H36.175L36.2517 33.0849C36.0466 33.2708 35.4062 33.6961 34.3305 34.3608L34.215 34.4769V34.515C34.5033 34.515 34.7852 34.953 35.0605 35.8289L35.0984 36.2155C35.0984 36.905 34.7014 37.5749 33.9073 38.2254L33.6384 38.3034H33.4074C32.3317 38.0557 31.7936 37.5529 31.793 36.7953V36.5639C31.793 36.1923 31.9852 35.7026 32.3696 35.0948H32.3317C32.0237 35.0948 31.7415 35.2881 31.4852 35.6747L29.8709 37.3371L29.9097 37.3752V37.4142C29.9097 38.2003 29.4612 38.7671 28.5642 39.1147C27.89 39.2053 27.2112 39.2571 26.5312 39.2698C25.5258 39.2698 24.8213 38.9601 24.4178 38.3406C24.2897 38.0309 24.2256 37.7989 24.2256 37.6446C24.2256 37.1559 24.8919 36.5503 26.2244 35.828C27.8964 34.6175 28.9597 34.012 29.4144 34.0114L29.5687 34.1275V34.2827L28.7222 36.1765C28.639 36.6144 28.575 36.8334 28.53 36.8334H28.4533C28.3067 36.8334 28.1785 36.4983 28.0689 35.828C26.6088 36.686 25.8785 37.3674 25.8779 37.8723V38.0275C26.1157 38.3372 26.4745 38.4921 26.9544 38.4921C28.0818 38.3954 28.6455 38.1891 28.6455 37.8732C28.6455 37.2804 29.0684 36.6361 29.9143 35.9404C31.0158 34.6786 32.0151 34.0473 32.912 34.0467L33.3741 34.0857C33.3741 33.9891 34.0404 33.6539 35.3729 33.0803L35.9061 33.0078ZM33.3648 35.211C32.986 35.7202 32.7938 36.1195 32.7882 36.4088V36.4478C32.7882 36.7507 32.9157 36.931 33.1726 36.9886C33.5571 36.931 33.7493 36.725 33.7493 36.3707V36.0612C33.7086 35.4944 33.5805 35.211 33.3648 35.211Z" fill="white"/>
<path d="M35.1808 37.8389C35.2399 37.9986 35.2666 38.1685 35.2593 38.3388V39.4985C35.2593 40.9926 34.8238 42.5516 33.9527 44.1752C32.556 46.0572 30.6598 46.9979 28.264 46.9973C25.7997 46.9973 23.8391 45.8249 22.3821 43.4802C21.8702 42.3713 21.6139 41.5465 21.6133 41.0057V40.8124C21.6974 40.6321 21.812 40.542 21.9598 40.542C22.2863 40.542 22.5041 40.993 22.6131 41.8949C22.9212 42.9189 23.3182 43.679 23.8043 44.1752C24.3175 44.8133 25.2145 45.29 26.4952 45.6053C27.0396 45.7089 27.5905 45.7744 28.1438 45.8014C30.86 45.8014 32.7051 44.2812 33.6791 41.2407C33.8843 40.6033 33.9868 39.6741 33.9868 38.4531V38.4141L34.0635 38.3369C34.0894 38.4141 34.1661 38.4531 34.2936 38.4531H34.3352C34.7708 38.0436 35.0526 37.8389 35.1808 37.8389Z" fill="white"/>
<path d="M30.7606 25.1992H31.4528C32.3152 25.1992 32.9048 25.6759 33.2215 26.6293L33.2982 27.4024V27.5594L33.2594 27.7527C34.0929 27.5979 34.7089 27.5204 35.1075 27.5204C36.5935 27.5204 37.6186 27.8813 38.1829 28.603C38.3557 28.8527 38.4494 29.149 38.4518 29.4532V29.9559C38.4518 30.2266 38.234 31.2958 37.7985 33.1636C37.7985 33.2407 37.7726 33.2797 37.7209 33.2797H37.293L37.2542 33.2407H37.2163C37.4467 32.0017 37.5619 31.1001 37.5619 30.5357C37.5619 29.5111 37.139 28.8297 36.2931 28.4915C36.0436 28.3886 35.5816 28.3112 34.907 28.2591C33.7032 28.3502 33.101 28.4664 33.1004 28.6076C33.0043 29.1614 32.7351 29.7927 32.2928 30.5014C31.6767 31.1208 30.9849 31.4306 30.2173 31.4306C29.6338 31.4306 29.2494 31.2116 29.064 30.7736V30.6194C29.064 29.814 30.2037 28.9508 32.4831 28.0296V27.9906C32.4831 27.0831 32.1501 26.4905 31.4842 26.213L30.9454 26.1359H30.6386C29.4724 26.1359 27.8707 26.8443 25.8334 28.261C25.0645 28.9319 24.6801 29.5892 24.6801 30.2328C24.6801 31.1862 25.7564 32.2297 27.9089 33.3634V33.4024L27.8322 33.4795C26.1787 32.9771 25.0768 32.4874 24.5267 32.0104C24.269 31.7933 24.0627 31.521 23.923 31.2134C23.7833 30.9059 23.7136 30.5709 23.719 30.2328C23.719 28.3707 25.6667 26.76 29.5621 25.4009C29.9526 25.288 30.3548 25.2203 30.7606 25.1992ZM30.7606 29.915C30.7731 29.9651 30.8037 30.0087 30.8464 30.0374C30.8891 30.066 30.9409 30.0777 30.9916 30.0702H31.1072C31.4768 30.0702 31.8738 29.6963 32.2983 28.9486L32.3371 28.7553C31.2867 29.2385 30.7612 29.6251 30.7606 29.915Z" fill="white"/>
<path d="M47.7126 33.0075C47.7719 33.0336 47.8219 33.0771 47.8562 33.1323C47.8905 33.1875 47.9074 33.2519 47.9048 33.3169C47.9048 33.4408 47.61 33.8918 47.0204 34.6699L46.9816 34.9012C46.9816 35.2302 47.302 35.6948 47.9427 36.2951C48.1219 36.5329 48.2116 36.7132 48.2116 36.8359V37.1453C48.2116 37.7183 47.1868 38.2207 45.1371 38.6525C43.2532 39.0626 41.9077 39.2676 41.1007 39.2676C40.46 39.2348 40.1396 39.106 40.1396 38.8811C40.1396 38.4945 41.0111 37.7985 42.7539 36.7931L44.3683 35.7496L44.4829 35.4402V35.4021C44.4829 35.351 44.3812 35.3092 44.1761 35.2859C43.9648 35.2859 43.2985 35.5957 42.1773 36.2152L41.9851 36.2542H41.9074C41.6967 36.2542 41.5554 36.0999 41.4851 35.7896V35.6734C41.5172 35.4541 41.9142 35.0933 42.6763 34.5909C42.6763 34.5289 42.8044 34.4645 43.0607 34.3976C43.24 34.3976 43.3305 34.5398 43.3305 34.8232L44.3683 34.4756C44.9123 34.4756 45.2838 34.6172 45.4827 34.9003V35.1707C45.3546 35.7834 44.3424 36.7745 42.4462 38.1442L42.3695 38.2604C42.3944 38.3375 42.4711 38.3765 42.5996 38.3765H42.7539C45.7516 38.1442 47.2505 37.6545 47.2505 36.9074C47.2505 36.6305 46.956 36.2182 46.3671 35.6706C46.1969 35.4344 46.103 35.1512 46.0982 34.8594C46.0982 34.3304 46.5082 33.7109 47.3281 33.001L47.7126 33.0075Z" fill="white"/>
<path d="M50.3226 35.5205H50.5998C50.8881 35.5205 51.0677 35.7522 51.1385 36.2156V36.7592C51.1385 37.4672 50.7285 38.3035 49.9086 39.2681C49.011 39.1442 48.5625 39.0537 48.5631 38.9967C49.5365 37.7925 50.0232 36.9679 50.0232 36.5231V36.3689C50.0232 36.3169 49.9853 36.2918 49.9086 36.2918C49.428 36.5036 48.7873 37.1736 47.9865 38.3017L47.4477 38.9586C46.7306 38.8998 46.3721 38.8354 46.3721 38.7654C48.3096 36.6226 49.6264 35.541 50.3226 35.5205Z" fill="white"/>
<path d="M53.6314 33.7041H53.7857C53.8818 33.7617 54.0358 33.9807 54.2477 34.3611L54.5555 34.4382L55.5165 34.2839H55.5544C55.6396 34.2773 55.725 34.2956 55.8001 34.3367C55.8752 34.3777 55.9369 34.4398 55.9776 34.5153V34.6315C55.9647 35.0886 55.1946 36.055 53.6674 37.5306L53.6286 37.6459H53.8217C54.0522 37.6459 54.9488 37.3885 56.5118 36.8737L56.8583 36.8346C57.0628 36.8545 57.1651 36.9576 57.1651 37.1441C57.1651 37.2983 56.7031 37.9683 55.779 39.154C55.3945 39.8689 55.2023 40.4487 55.2023 40.8935V41.0087C55.2023 42.2402 56.1505 43.1809 58.0467 43.8308C58.414 43.903 58.7869 43.9419 59.1611 43.9469H59.3155C60.1416 43.9469 60.8334 43.7793 61.391 43.4442C61.5324 43.3215 61.634 43.0381 61.6987 42.594L61.622 41.8599C61.6728 41.5755 61.8142 41.4343 62.0443 41.4343C62.2236 41.4919 62.3132 41.6471 62.3132 41.8989V42.4397C62.3132 43.6384 61.6087 44.4502 60.1998 44.8752C59.7627 45.0034 59.3097 45.0685 58.8543 45.0685C57.2206 45.0685 55.811 44.4629 54.6257 43.2518C54.1131 42.5884 53.8569 41.9184 53.8569 41.2419C53.8569 40.3264 54.2413 39.2955 55.0101 38.1495V38.1114C53.5753 38.7042 52.6528 39.0004 52.2425 38.9997H52.0115C51.6529 38.9681 51.4736 38.8139 51.4736 38.5351C51.4736 38.2006 51.9733 37.6208 52.9725 36.7956L54.318 35.4427V35.4046H54.2801C54.0337 35.4046 53.6492 35.6623 53.1268 36.1777L52.8191 36.2548H52.7803C52.5751 36.2548 52.4476 36.1136 52.3959 35.8292C52.3959 35.6682 52.614 35.2689 53.0501 34.6315C53.1308 34.0126 53.3246 33.7035 53.6314 33.7041Z" fill="white"/>
<path d="M66.5955 33.042H67.0575C67.1238 33.062 67.182 33.1029 67.2236 33.1585C67.2651 33.2142 67.2879 33.2818 67.2885 33.3514V33.5837C67.2885 33.8476 66.9167 34.1441 66.1732 34.473V34.5501C66.1861 34.5947 66.4168 34.7236 66.8653 34.9367C67.0963 35.1169 67.2109 35.3232 67.2109 35.5546V35.7479C67.2109 36.3407 66.6472 37.0751 65.5198 37.9511C64.1805 38.8289 63.1554 39.2678 62.4444 39.2678C61.8284 39.1581 61.5204 38.9131 61.5204 38.5328C60.4114 38.8159 59.6044 38.9577 59.0992 38.9583C57.9706 38.8617 57.4066 38.5396 57.4072 37.992C57.4072 37.3353 58.6246 36.4333 61.0592 35.2861C61.6932 35.1318 62.1031 35.0544 62.2892 35.0538H62.3659C62.6431 35.0538 62.7891 35.1578 62.7891 35.3632C62.7891 35.712 62.3406 36.1766 61.4437 36.757H61.1747C61.1241 36.7339 61.0819 36.6954 61.0542 36.6469C61.0265 36.5983 61.0147 36.5423 61.0204 36.4866V36.3314C60.6748 36.3773 60.1111 36.7768 59.3293 37.5301L59.1759 37.9167V37.9548C59.2138 38.0839 59.3811 38.1481 59.6759 38.1481H59.7526C60.5596 38.1481 61.8281 37.4137 63.558 35.9449C63.9935 35.6104 64.365 35.4428 64.6724 35.4422C65.0057 35.5394 65.1724 35.707 65.1724 35.9449C65.1724 36.2676 64.6854 36.796 63.7114 37.5301L63.5192 37.9167L63.6347 37.9938C64.2242 37.9938 65.0316 37.427 66.0567 36.2933C66.1536 36.1013 66.2061 35.8898 66.2101 35.6745V35.5202L66.1713 35.5583H65.8257C65.4154 35.5583 65.1074 35.2749 64.9016 34.7081L64.8628 34.4767C64.8628 33.8709 65.2857 33.4199 66.1316 33.1238L66.5955 33.042Z" fill="white"/>
</g>
<defs>
<clipPath id="clip0_37_64">
<rect width="124" height="47" fill="white"/>
</clipPath>
</defs>
</svg>
